<mxfile host="app.diagrams.net" agent="Mozilla/5.0 (Windows NT 10.0; Win64; x64) AppleWebKit/537.36 (KHTML, like Gecko) Chrome/131.0.0.0 Safari/537.36" version="26.0.4">
  <diagram name="第 1 页" id="w7ORR3N5zjVWaFXMmG__">
    <mxGraphModel dx="977" dy="620" grid="1" gridSize="10" guides="1" tooltips="1" connect="1" arrows="1" fold="1" page="1" pageScale="1" pageWidth="827" pageHeight="1169" math="0" shadow="0">
      <root>
        <mxCell id="0" />
        <mxCell id="1" parent="0" />
        <mxCell id="1PTGxJMn3UItYeF_Vd21-4" style="rounded=0;orthogonalLoop=1;jettySize=auto;html=1;dashed=1;dashPattern=8 8;" edge="1" parent="1" source="1PTGxJMn3UItYeF_Vd21-1" target="1PTGxJMn3UItYeF_Vd21-2">
          <mxGeometry relative="1" as="geometry" />
        </mxCell>
        <mxCell id="1PTGxJMn3UItYeF_Vd21-1" value="" style="verticalLabelPosition=bottom;aspect=fixed;html=1;shape=mxgraph.salesforce.iot2;" vertex="1" parent="1">
          <mxGeometry x="48" y="310" width="60" height="60" as="geometry" />
        </mxCell>
        <mxCell id="1PTGxJMn3UItYeF_Vd21-2" value="" style="verticalLabelPosition=bottom;aspect=fixed;html=1;shape=mxgraph.salesforce.communications2;" vertex="1" parent="1">
          <mxGeometry x="118" y="160" width="60" height="60" as="geometry" />
        </mxCell>
        <mxCell id="1PTGxJMn3UItYeF_Vd21-5" style="rounded=0;orthogonalLoop=1;jettySize=auto;html=1;dashed=1;dashPattern=8 8;" edge="1" parent="1" source="1PTGxJMn3UItYeF_Vd21-3" target="1PTGxJMn3UItYeF_Vd21-2">
          <mxGeometry relative="1" as="geometry" />
        </mxCell>
        <mxCell id="1PTGxJMn3UItYeF_Vd21-3" value="" style="verticalLabelPosition=bottom;aspect=fixed;html=1;shape=mxgraph.salesforce.iot2;" vertex="1" parent="1">
          <mxGeometry x="178" y="310" width="60" height="60" as="geometry" />
        </mxCell>
        <mxCell id="1PTGxJMn3UItYeF_Vd21-6" value="Power is balanced" style="text;html=1;align=center;verticalAlign=middle;whiteSpace=wrap;rounded=0;" vertex="1" parent="1">
          <mxGeometry x="88" y="370" width="120" height="30" as="geometry" />
        </mxCell>
        <mxCell id="1PTGxJMn3UItYeF_Vd21-9" value="" style="shape=image;html=1;verticalAlign=top;verticalLabelPosition=bottom;labelBackgroundColor=#ffffff;imageAspect=0;aspect=fixed;image=https://cdn4.iconfinder.com/data/icons/ionicons/512/icon-battery-charging-128.png;direction=north;" vertex="1" parent="1">
          <mxGeometry x="20" y="330" width="28" height="28" as="geometry" />
        </mxCell>
        <mxCell id="1PTGxJMn3UItYeF_Vd21-10" value="" style="shape=image;html=1;verticalAlign=top;verticalLabelPosition=bottom;labelBackgroundColor=#ffffff;imageAspect=0;aspect=fixed;image=https://cdn4.iconfinder.com/data/icons/ionicons/512/icon-battery-charging-128.png;direction=north;" vertex="1" parent="1">
          <mxGeometry x="238" y="330" width="28" height="28" as="geometry" />
        </mxCell>
        <mxCell id="1PTGxJMn3UItYeF_Vd21-11" style="rounded=0;orthogonalLoop=1;jettySize=auto;html=1;dashed=1;dashPattern=8 8;" edge="1" parent="1" source="1PTGxJMn3UItYeF_Vd21-12" target="1PTGxJMn3UItYeF_Vd21-15">
          <mxGeometry relative="1" as="geometry" />
        </mxCell>
        <mxCell id="1PTGxJMn3UItYeF_Vd21-12" value="" style="verticalLabelPosition=bottom;aspect=fixed;html=1;shape=mxgraph.salesforce.iot2;" vertex="1" parent="1">
          <mxGeometry x="310" y="310" width="60" height="60" as="geometry" />
        </mxCell>
        <mxCell id="1PTGxJMn3UItYeF_Vd21-13" value="" style="verticalLabelPosition=bottom;aspect=fixed;html=1;shape=mxgraph.salesforce.communications2;" vertex="1" parent="1">
          <mxGeometry x="380" y="160" width="60" height="60" as="geometry" />
        </mxCell>
        <mxCell id="1PTGxJMn3UItYeF_Vd21-14" style="rounded=0;orthogonalLoop=1;jettySize=auto;html=1;dashed=1;dashPattern=8 8;" edge="1" parent="1" source="1PTGxJMn3UItYeF_Vd21-15" target="1PTGxJMn3UItYeF_Vd21-13">
          <mxGeometry relative="1" as="geometry" />
        </mxCell>
        <mxCell id="1PTGxJMn3UItYeF_Vd21-15" value="" style="verticalLabelPosition=bottom;aspect=fixed;html=1;shape=mxgraph.salesforce.iot2;" vertex="1" parent="1">
          <mxGeometry x="440" y="310" width="60" height="60" as="geometry" />
        </mxCell>
        <mxCell id="1PTGxJMn3UItYeF_Vd21-16" value="Power is not balanced" style="text;html=1;align=center;verticalAlign=middle;whiteSpace=wrap;rounded=0;" vertex="1" parent="1">
          <mxGeometry x="345" y="370" width="130" height="30" as="geometry" />
        </mxCell>
        <mxCell id="1PTGxJMn3UItYeF_Vd21-19" value="" style="shape=image;html=1;verticalAlign=top;verticalLabelPosition=bottom;labelBackgroundColor=#ffffff;imageAspect=0;aspect=fixed;image=https://cdn4.iconfinder.com/data/icons/ionicons/512/icon-battery-half-128.png;direction=north;" vertex="1" parent="1">
          <mxGeometry x="500" y="330" width="28" height="28" as="geometry" />
        </mxCell>
        <mxCell id="1PTGxJMn3UItYeF_Vd21-21" value="" style="verticalLabelPosition=bottom;aspect=fixed;html=1;shape=mxgraph.salesforce.iot2;" vertex="1" parent="1">
          <mxGeometry x="568" y="310" width="60" height="60" as="geometry" />
        </mxCell>
        <mxCell id="1PTGxJMn3UItYeF_Vd21-22" value="" style="verticalLabelPosition=bottom;aspect=fixed;html=1;shape=mxgraph.salesforce.communications2;" vertex="1" parent="1">
          <mxGeometry x="638" y="160" width="60" height="60" as="geometry" />
        </mxCell>
        <mxCell id="1PTGxJMn3UItYeF_Vd21-24" value="" style="verticalLabelPosition=bottom;aspect=fixed;html=1;shape=mxgraph.salesforce.iot2;" vertex="1" parent="1">
          <mxGeometry x="698" y="310" width="60" height="60" as="geometry" />
        </mxCell>
        <mxCell id="1PTGxJMn3UItYeF_Vd21-25" value="Power off at the same time" style="text;html=1;align=center;verticalAlign=middle;whiteSpace=wrap;rounded=0;" vertex="1" parent="1">
          <mxGeometry x="618" y="370" width="100" height="30" as="geometry" />
        </mxCell>
        <mxCell id="1PTGxJMn3UItYeF_Vd21-29" value="" style="shape=image;html=1;verticalAlign=top;verticalLabelPosition=bottom;labelBackgroundColor=#ffffff;imageAspect=0;aspect=fixed;image=https://cdn4.iconfinder.com/data/icons/ionicons/512/icon-battery-empty-128.png;direction=north;" vertex="1" parent="1">
          <mxGeometry x="540" y="330" width="28" height="28" as="geometry" />
        </mxCell>
        <mxCell id="1PTGxJMn3UItYeF_Vd21-30" value="" style="shape=image;html=1;verticalAlign=top;verticalLabelPosition=bottom;labelBackgroundColor=#ffffff;imageAspect=0;aspect=fixed;image=https://cdn4.iconfinder.com/data/icons/ionicons/512/icon-battery-low-128.png;direction=north;" vertex="1" parent="1">
          <mxGeometry x="280" y="330" width="28" height="28" as="geometry" />
        </mxCell>
        <mxCell id="1PTGxJMn3UItYeF_Vd21-31" value="" style="shape=image;html=1;verticalAlign=top;verticalLabelPosition=bottom;labelBackgroundColor=#ffffff;imageAspect=0;aspect=fixed;image=https://cdn4.iconfinder.com/data/icons/ionicons/512/icon-battery-empty-128.png;direction=north;" vertex="1" parent="1">
          <mxGeometry x="758" y="330" width="28" height="28" as="geometry" />
        </mxCell>
        <mxCell id="1PTGxJMn3UItYeF_Vd21-33" style="rounded=0;orthogonalLoop=1;jettySize=auto;html=1;dashed=1;dashPattern=8 8;" edge="1" parent="1">
          <mxGeometry relative="1" as="geometry">
            <mxPoint x="616" y="310" as="sourcePoint" />
            <mxPoint x="658" y="220" as="targetPoint" />
          </mxGeometry>
        </mxCell>
        <mxCell id="1PTGxJMn3UItYeF_Vd21-34" style="rounded=0;orthogonalLoop=1;jettySize=auto;html=1;dashed=1;dashPattern=8 8;" edge="1" parent="1">
          <mxGeometry relative="1" as="geometry">
            <mxPoint x="720" y="310" as="sourcePoint" />
            <mxPoint x="684" y="220" as="targetPoint" />
          </mxGeometry>
        </mxCell>
      </root>
    </mxGraphModel>
  </diagram>
</mxfile>
